<svg width="32" height="33" viewBox="0 0 32 33" fill="none" xmlns="http://www.w3.org/2000/svg">
<path d="M18.6667 12.5H13.3333V13.8333H12V19.1667H13.3333V20.5H18.6667V19.1667H20V13.8333H18.6667V12.5ZM17.3333 17.8333H14.6667V15.1667H17.3333V17.8333Z" fill="currentColor"/>
<path d="M28.0002 12.5V9.83333H26.6668V8.5H25.3335V7.16667H22.6668V4.5H9.3335V7.16667H6.66683V8.5H5.3335V9.83333H4.00016V12.5H1.3335V20.5H4.00016V23.1667H5.3335V24.5H6.66683V25.8333H9.3335V28.5H22.6668V25.8333H25.3335V24.5H26.6668V23.1667H28.0002V20.5H30.6668V12.5H28.0002ZM28.0002 17.8333H25.3335V20.5H24.0002V21.8333H22.6668V23.1667H20.0002V25.8333H12.0002V23.1667H9.3335V21.8333H8.00016V20.5H6.66683V17.8333H4.00016V15.1667H6.66683V13.8333V12.5H8.00016V11.1667H9.3335V9.83333H12.0002V7.16667H20.0002V9.83333H22.6668V11.1667H24.0002V12.5H25.3335V15.1667H28.0002V17.8333Z" fill="currentColor"/>
</svg>
