<?xml version='1.0' encoding='UTF-8'?>
<svg xmlns="http://www.w3.org/2000/svg" width="24" height="24" viewBox="0 0 24 24" fill="none">
<path d="M20 10.9997C19.7554 9.23992 18.9391 7.60937 17.6766 6.3592C16.4142 5.10904 14.7758 4.30862 13.0137 4.08126C11.2516 3.85389 9.46362 4.21219 7.9252 5.10095C6.38678 5.98972 5.18325 7.35964 4.5 8.99971M4 4.99971V8.99971H8M4 12.9997C4.28668 15.0679 5.36155 16.9454 7 18.2397M11 14.9997H13C13.2652 14.9997 13.5196 15.1051 13.7071 15.2926C13.8946 15.4801 14 15.7345 14 15.9997V16.9997C14 17.2649 13.8946 17.5193 13.7071 17.7068C13.5196 17.8944 13.2652 17.9997 13 17.9997H12C11.7348 17.9997 11.4804 18.1051 11.2929 18.2926C11.1054 18.4801 11 18.7345 11 18.9997V19.9997C11 20.2649 11.1054 20.5193 11.2929 20.7068C11.4804 20.8944 11.7348 20.9997 12 20.9997H14M17 14.9997V16.9997C17 17.2649 17.1054 17.5193 17.2929 17.7068C17.4804 17.8944 17.7348 17.9997 18 17.9997H19M20 14.9997V20.9997" stroke="currentColor" stroke-width="2" stroke-linecap="round" stroke-linejoin="round"/>
</svg>
