<?xml version='1.0' encoding='UTF-8'?>
<svg xmlns="http://www.w3.org/2000/svg" width="24" height="24" viewBox="0 0 24 24" fill="none">
<path d="M11.9999 11.9998V12.0098M14.8279 9.17177C15.5778 9.92188 15.9991 10.9391 15.9991 11.9998C15.9991 13.0604 15.5778 14.0777 14.8279 14.8278M17.6569 6.34277C18.3999 7.08565 18.9892 7.96758 19.3912 8.93821C19.7933 9.90884 20.0002 10.9492 20.0002 11.9998C20.0002 13.0504 19.7933 14.0907 19.3912 15.0613C18.9892 16.032 18.3999 16.9139 17.6569 17.6568M9.16794 14.8278C8.41806 14.0777 7.9968 13.0604 7.9968 11.9998C7.9968 10.9391 8.41806 9.92188 9.16794 9.17177M6.33694 17.6568C5.59403 16.9139 5.00472 16.032 4.60266 15.0613C4.20059 14.0907 3.99365 13.0504 3.99365 11.9998C3.99365 10.9492 4.20059 9.90884 4.60266 8.93821C5.00472 7.96758 5.59403 7.08565 6.33694 6.34277" stroke="currentColor" stroke-width="2" stroke-linecap="round" stroke-linejoin="round"/>
</svg>
