<?xml version='1.0' encoding='UTF-8'?>
<svg xmlns="http://www.w3.org/2000/svg" width="24" height="24" viewBox="0 0 24 24" fill="none">
<path d="M19.875 6.26959C20.2187 6.46505 20.5041 6.74856 20.7018 7.09095C20.8995 7.43333 21.0025 7.82222 21 8.21759V15.5016C21 16.3106 20.557 17.0566 19.842 17.4496L13.092 21.7196C12.7574 21.9033 12.3818 21.9996 12 21.9996C11.6182 21.9996 11.2426 21.9033 10.908 21.7196L4.158 17.4496C3.80817 17.2584 3.51612 16.9768 3.31241 16.6341C3.1087 16.2914 3.0008 15.9003 3 15.5016V8.21659C3 7.40759 3.443 6.66259 4.158 6.26959L10.908 2.28959C11.2525 2.09963 11.6396 2 12.033 2C12.4264 2 12.8135 2.09963 13.158 2.28959L19.908 6.26959H19.875Z" stroke="currentColor" stroke-width="2" stroke-linecap="round" stroke-linejoin="round"/>
<path d="M15.5 9.42159C15.812 9.60159 16.003 9.93659 16 10.2976V13.5746C16 13.9386 15.803 14.2746 15.485 14.4516L12.485 16.3736C12.3366 16.4559 12.1697 16.4991 12 16.4991C11.8303 16.4991 11.6634 16.4559 11.515 16.3736L8.515 14.4516C8.35871 14.3649 8.22851 14.2379 8.13794 14.0839C8.04737 13.9298 7.99974 13.7543 8 13.5756V10.2976C8 9.93359 8.197 9.59759 8.514 9.42059L11.514 7.63059C11.825 7.45659 12.204 7.45659 12.514 7.63059L15.514 9.42059H15.5V9.42159Z" stroke="currentColor" stroke-width="2" stroke-linecap="round" stroke-linejoin="round"/>
</svg>
