<?xml version='1.0' encoding='UTF-8'?>
<svg xmlns="http://www.w3.org/2000/svg" width="24" height="24" viewBox="0 0 24 24" fill="none">
<path d="M17.553 16.7498C16.1465 15.3435 14.239 14.5534 12.25 14.5534C10.261 14.5534 8.3535 15.3435 6.94701 16.7498M18 3.80383C16.6219 3.00822 14.9842 2.79261 13.4472 3.20444C11.9102 3.61627 10.5997 4.6218 9.804 5.99984L20.196 11.9998C20.9916 10.6218 21.2072 8.98408 20.7954 7.44704C20.3836 5.91 19.378 4.59951 18 3.80383ZM18 3.80383C18.957 4.35583 18.39 7.12984 16.732 9.99984M18 3.80383C17.043 3.25183 14.925 5.12984 13.268 7.99984M15 8.99984L12 14.1958M3 19.2498C3.31129 19.0951 3.65249 19.0098 4 18.9998C4.3895 18.9917 4.77512 19.0785 5.12358 19.2527C5.47203 19.4269 5.77283 19.6833 6 19.9998C6.22717 20.3163 6.52797 20.5728 6.87642 20.747C7.22488 20.9212 7.6105 21.008 8 20.9998C8.3895 21.008 8.77512 20.9212 9.12358 20.747C9.47203 20.5728 9.77283 20.3163 10 19.9998C10.2272 19.6833 10.528 19.4269 10.8764 19.2527C11.2249 19.0785 11.6105 18.9917 12 18.9998C12.3895 18.9917 12.7751 19.0785 13.1236 19.2527C13.472 19.4269 13.7728 19.6833 14 19.9998C14.2272 20.3163 14.528 20.5728 14.8764 20.747C15.2249 20.9212 15.6105 21.008 16 20.9998C16.3895 21.008 16.7751 20.9212 17.1236 20.747C17.472 20.5728 17.7728 20.3163 18 19.9998C18.2272 19.6833 18.528 19.4269 18.8764 19.2527C19.2249 19.0785 19.6105 18.9917 20 18.9998C20.3475 19.0098 20.6887 19.0951 21 19.2498" stroke="currentColor" stroke-width="2" stroke-linecap="round" stroke-linejoin="round"/>
</svg>
