<?xml version='1.0' encoding='UTF-8'?>
<svg xmlns="http://www.w3.org/2000/svg" width="24" height="24" viewBox="0 0 24 24" fill="none">
<path d="M9 4.99955C9 4.73434 8.89464 4.47998 8.70711 4.29245C8.51957 4.10491 8.26522 3.99955 8 3.99955H6C5.73478 3.99955 5.48043 4.10491 5.29289 4.29245C5.10536 4.47998 5 4.73434 5 4.99955V18.9996C5 19.2648 5.10536 19.5191 5.29289 19.7067C5.48043 19.8942 5.73478 19.9996 6 19.9996H8C8.26522 19.9996 8.51957 19.8942 8.70711 19.7067C8.89464 19.5191 9 19.2648 9 18.9996M9 4.99955V18.9996M9 4.99955C9 4.73434 9.10536 4.47998 9.29289 4.29245C9.48043 4.10491 9.73478 3.99955 10 3.99955H12C12.2652 3.99955 12.5196 4.10491 12.7071 4.29245C12.8946 4.47998 13 4.73434 13 4.99955V18.9996C13 19.2648 12.8946 19.5191 12.7071 19.7067C12.5196 19.8942 12.2652 19.9996 12 19.9996H10C9.73478 19.9996 9.48043 19.8942 9.29289 19.7067C9.10536 19.5191 9 19.2648 9 18.9996M5 7.99955H9M9 15.9996H13M14 8.99955L18 7.99955M16 15.9996L19.923 15.0196M13.803 4.55955L15.987 4.02955C16.549 3.89455 17.12 4.21955 17.269 4.76155L20.964 18.1796C21.0292 18.4252 21.0003 18.6863 20.8831 18.9118C20.7658 19.1373 20.5686 19.3109 20.33 19.3986L20.197 19.4396L18.013 19.9696C17.451 20.1046 16.88 19.7796 16.731 19.2376L13.036 5.81955C12.9708 5.5739 12.9997 5.31277 13.117 5.08729C13.2342 4.86181 13.4315 4.68823 13.67 4.60055L13.803 4.55955Z" stroke="currentColor" stroke-width="2" stroke-linecap="round" stroke-linejoin="round"/>
</svg>
