<?xml version='1.0' encoding='UTF-8'?>
<svg xmlns="http://www.w3.org/2000/svg" width="24" height="24" viewBox="0 0 24 24" fill="none">
<path d="M18.3642 19.364C19.8325 17.8977 20.749 15.9691 20.9585 13.9047C21.1681 11.8402 20.6579 9.76682 19.5142 8.03539C18.3706 6.30396 16.6637 5.02091 14.6827 4.40343C12.7017 3.78596 10.5681 3.87201 8.64321 4.647M6.15521 6.156C5.21118 6.96222 4.44415 7.95504 3.90234 9.07202C3.36054 10.189 3.05568 11.406 3.00694 12.6465C2.9582 13.887 3.16662 15.1241 3.6191 16.2802C4.07159 17.4362 4.75835 18.4862 5.63621 19.364M15.5362 16.536C16.2357 15.8367 16.712 14.9457 16.905 13.9757C17.098 13.0057 16.999 12.0002 16.6205 11.0865C16.242 10.1727 15.601 9.39175 14.7785 8.84235C13.9561 8.29296 12.9892 7.99982 12.0002 8M9.00021 9C8.42708 9.42985 7.95302 9.97785 7.61013 10.6069C7.26724 11.2359 7.06353 11.9313 7.0128 12.6459C6.96206 13.3605 7.06549 14.0777 7.31608 14.7489C7.56666 15.42 7.95855 16.0295 8.46521 16.536M12.0002 12C11.8025 12 11.6091 12.0586 11.4447 12.1685C11.2802 12.2784 11.1521 12.4346 11.0764 12.6173C11.0007 12.8 10.9809 13.0011 11.0195 13.1951C11.058 13.3891 11.1533 13.5673 11.2931 13.7071C11.433 13.847 11.6112 13.9422 11.8052 13.9808C11.9991 14.0194 12.2002 13.9996 12.3829 13.9239C12.5657 13.8482 12.7218 13.72 12.8317 13.5556C12.9416 13.3911 13.0002 13.1978 13.0002 13M3.00024 3L21.0002 21" stroke="currentColor" stroke-width="2" stroke-linecap="round" stroke-linejoin="round"/>
</svg>
