<?xml version='1.0' encoding='UTF-8'?>
<svg xmlns="http://www.w3.org/2000/svg" width="24" height="24" viewBox="0 0 24 24" fill="none">
<path d="M18.364 19.3639C19.6227 18.1052 20.4798 16.5016 20.8271 14.7558C21.1743 13.0099 20.9961 11.2004 20.3149 9.55582C19.6337 7.9113 18.4802 6.50569 17.0001 5.51677C15.5201 4.52784 13.78 4 12 4C10.22 4 8.47992 4.52784 6.99988 5.51677C5.51984 6.50569 4.36629 7.9113 3.6851 9.55582C3.00391 11.2004 2.82567 13.0099 3.17293 14.7558C3.52019 16.5016 4.37734 18.1052 5.636 19.3639M15.536 16.5359C16.2351 15.8366 16.7112 14.9457 16.904 13.9758C17.0968 13.006 16.9978 12.0007 16.6193 11.0871C16.2408 10.1736 15.5999 9.39276 14.7777 8.84341C13.9555 8.29407 12.9889 8.00085 12 8.00085C11.0112 8.00085 10.0445 8.29407 9.22229 8.84341C8.40007 9.39276 7.75921 10.1736 7.38073 11.0871C7.00226 12.0007 6.90316 13.006 7.09598 13.9758C7.2888 14.9457 7.76487 15.8366 8.464 16.5359M11 12.9999C11 13.2651 11.1054 13.5195 11.2929 13.707C11.4804 13.8946 11.7348 13.9999 12 13.9999C12.2652 13.9999 12.5196 13.8946 12.7071 13.707C12.8946 13.5195 13 13.2651 13 12.9999C13 12.7347 12.8946 12.4804 12.7071 12.2928C12.5196 12.1053 12.2652 11.9999 12 11.9999C11.7348 11.9999 11.4804 12.1053 11.2929 12.2928C11.1054 12.4804 11 12.7347 11 12.9999Z" stroke="currentColor" stroke-width="2" stroke-linecap="round" stroke-linejoin="round"/>
</svg>
