<?xml version='1.0' encoding='UTF-8'?>
<svg xmlns="http://www.w3.org/2000/svg" width="24" height="24" viewBox="0 0 24 24" fill="none">
<path d="M16.616 13.9238C16.9328 13.164 17.057 12.3377 16.9778 11.5183C16.8985 10.6989 16.6181 9.91176 16.1615 9.22675C15.705 8.54174 15.0863 7.98006 14.3605 7.59158C13.6347 7.2031 12.8242 6.99984 12.001 6.99984C11.1778 6.99984 10.3673 7.2031 9.6415 7.59158C8.9157 7.98006 8.29705 8.54174 7.84048 9.22675C7.38391 9.91176 7.10353 10.6989 7.02425 11.5183C6.94497 12.3377 7.06923 13.164 7.38601 13.9238M20.307 15.4688C20.877 14.1011 21.1004 12.6139 20.9576 11.1391C20.8147 9.66432 20.31 8.24761 19.4881 7.01474C18.6662 5.78188 17.5527 4.77099 16.2463 4.07182C14.94 3.37266 13.4812 3.00684 11.9995 3.00684C10.5178 3.00684 9.05904 3.37266 7.75268 4.07182C6.44632 4.77099 5.33278 5.78188 4.51092 7.01474C3.68906 8.24761 3.1843 9.66432 3.04144 11.1391C2.89859 12.6139 3.12206 14.1011 3.69201 15.4688M9.00002 20.9998L12 11.9998L15 20.9998M10 18.9998H14M11 11.9998C11 12.2651 11.1054 12.5194 11.2929 12.7069C11.4804 12.8945 11.7348 12.9998 12 12.9998C12.2652 12.9998 12.5196 12.8945 12.7071 12.7069C12.8947 12.5194 13 12.2651 13 11.9998C13 11.7346 12.8947 11.4803 12.7071 11.2927C12.5196 11.1052 12.2652 10.9998 12 10.9998C11.7348 10.9998 11.4804 11.1052 11.2929 11.2927C11.1054 11.4803 11 11.7346 11 11.9998Z" stroke="currentColor" stroke-width="2" stroke-linecap="round" stroke-linejoin="round"/>
</svg>
