<?xml version='1.0' encoding='UTF-8'?>
<svg xmlns="http://www.w3.org/2000/svg" width="24" height="24" viewBox="0 0 24 24" fill="none">
<path d="M4 20.9995C5.147 16.9795 5.983 12.9725 6 8.99955H12C12.017 12.9725 12.853 16.9795 14 20.9995M12.5 12.9995H17C17.025 15.6115 17.894 18.2955 19 20.9995M9 4.99955C9.22717 4.68306 9.52797 4.42662 9.87642 4.2524C10.2249 4.07817 10.6105 3.99139 11 3.99955C11.3895 3.99139 11.7751 4.07817 12.1236 4.2524C12.472 4.42662 12.7728 4.68306 13 4.99955C13.2272 5.31604 13.528 5.57248 13.8764 5.7467C14.2249 5.92093 14.6105 6.00771 15 5.99955C15.3895 6.00771 15.7751 5.92093 16.1236 5.7467C16.472 5.57248 16.7728 5.31604 17 4.99955C17.2272 4.68306 17.528 4.42662 17.8764 4.2524C18.2249 4.07817 18.6105 3.99139 19 3.99955C19.3895 3.99139 19.7751 4.07817 20.1236 4.2524C20.472 4.42662 20.7728 4.68306 21 4.99955M3 20.9995H22" stroke="currentColor" stroke-width="2" stroke-linecap="round" stroke-linejoin="round"/>
</svg>
