<?xml version='1.0' encoding='UTF-8'?>
<svg xmlns="http://www.w3.org/2000/svg" width="24" height="24" viewBox="0 0 24 24" fill="none">
<path d="M6.15 6.15334C5.26385 7.49916 4.86915 9.10949 5.03251 10.7126C5.19588 12.3156 5.9073 13.8132 7.0467 14.9526C8.18611 16.092 9.68372 16.8035 11.2868 16.9668C12.8898 17.1302 14.5002 16.7355 15.846 15.8493M17.846 13.8493C18.7329 12.5033 19.128 10.8924 18.9647 9.2887C18.8013 7.68503 18.0895 6.18689 16.9494 5.04729C15.8094 3.90769 14.3109 3.19649 12.7072 3.0338C11.1034 2.87111 9.4927 3.26691 8.147 4.15434M9.13 9.12233C8.97043 9.64279 8.95548 10.1969 9.08676 10.7252C9.21804 11.2535 9.49059 11.7361 9.8752 12.1213C10.2598 12.5066 10.742 12.7799 11.2701 12.912C11.7982 13.0441 12.3523 13.0301 12.873 12.8713M14.873 10.8713C15.0289 10.3523 15.0413 9.80071 14.9089 9.27519C14.7764 8.74967 14.5041 8.26984 14.1209 7.88667C13.7376 7.50351 13.2577 7.23132 12.7321 7.09903C12.2066 6.96674 11.655 6.97928 11.136 7.13533M8 16.0003L5.909 19.4863C5.8181 19.638 5.76906 19.8111 5.76687 19.988C5.76468 20.1648 5.80942 20.339 5.89654 20.4929C5.98366 20.6468 6.11003 20.7749 6.26277 20.864C6.41551 20.9532 6.58916 21.0002 6.766 21.0003H17.234C17.4108 21.0002 17.5845 20.9532 17.7372 20.864C17.89 20.7749 18.0163 20.6468 18.1035 20.4929C18.1906 20.339 18.2353 20.1648 18.2331 19.988C18.2309 19.8111 18.1819 19.638 18.091 19.4863L16 16.0003M3 3.00034L21 21.0003" stroke="currentColor" stroke-width="2" stroke-linecap="round" stroke-linejoin="round"/>
</svg>
