<svg width="140" height="140" viewBox="0 0 140 140" fill="none" xmlns="http://www.w3.org/2000/svg">
<rect width="140" height="140" rx="70" fill="#DFEAFF"/>
<path d="M97.1344 64.5613H93.5244V53.7075H89.8906V82.6588H93.5244V68.195H97.1344V71.805H100.768V60.9513H97.1344V64.5613Z" fill="#0960E3"/>
<path d="M86.2803 100.756V108H89.8903V104.39H97.134V108H100.768V97.1462H97.134V100.756H86.2803Z" fill="#0960E3"/>
<path d="M97.1344 35.6101H93.5244V39.2439H97.1344V35.6101Z" fill="#0960E3"/>
<path d="M93.5244 39.2437H89.8906V42.8537H93.5244V39.2437Z" fill="#0960E3"/>
<path d="M93.5244 32H89.8906V35.61H93.5244V32Z" fill="#0960E3"/>
<path d="M89.8903 82.6587H86.2803V86.2924H89.8903V82.6587Z" fill="#0960E3"/>
<path d="M89.8903 50.0974H86.2803V53.7074H89.8903V50.0974Z" fill="#0960E3"/>
<path d="M82.6705 64.5612H79.0368V60.9512H75.4268V68.1949H79.0368V71.8049H82.6705V68.1949H86.2805V60.9512H82.6705V64.5612Z" fill="#0960E3"/>
<path d="M86.2799 35.6101H82.6699V39.2439H86.2799V35.6101Z" fill="#0960E3"/>
<path d="M53.7193 86.2925V89.9025H57.3293V93.5125H42.8418V97.1462H97.1343V93.5125H82.6705V89.9025H86.2805V86.2925H53.7193ZM79.0368 93.5125H60.9393V89.9025H79.0368V93.5125Z" fill="#0960E3"/>
<path d="M82.6699 39.2437H79.0361V42.8537H82.6699V39.2437Z" fill="#0960E3"/>
<path d="M82.6699 32H79.0361V35.61H82.6699V32Z" fill="#0960E3"/>
<path d="M57.3291 100.756V108H60.9391V104.39H79.0366V108H82.6704V100.756H57.3291Z" fill="#0960E3"/>
<path d="M75.4267 35.6101H71.793V39.2439H75.4267V35.6101Z" fill="#0960E3"/>
<path d="M71.7923 75.415H68.1823V79.0488H64.5723V82.6588H75.426V79.0488H71.7923V75.415Z" fill="#0960E3"/>
<path d="M71.7926 32H68.1826V35.61H71.7926V32Z" fill="#0960E3"/>
<path d="M68.1823 35.6101H64.5723V39.2439H68.1823V35.6101Z" fill="#0960E3"/>
<path d="M64.5725 60.9512H60.9387V64.5612H57.3287V60.9512H53.7188V68.1949H57.3287V71.8049H60.9387V68.1949H64.5725V60.9512Z" fill="#0960E3"/>
<path d="M57.3287 53.7074H60.9387V57.3412H79.0362V53.7074H82.67V50.0974H86.28V46.4637H71.7925V39.2437H68.1825V46.4637H53.7188V50.0974H57.3287V53.7074Z" fill="#0960E3"/>
<path d="M60.9391 39.2437H57.3291V42.8537H60.9391V39.2437Z" fill="#0960E3"/>
<path d="M60.9391 32H57.3291V35.61H60.9391V32Z" fill="#0960E3"/>
<path d="M57.3287 35.6101H53.7188V39.2439H57.3287V35.6101Z" fill="#0960E3"/>
<path d="M53.7187 82.6587H50.085V86.2924H53.7187V82.6587Z" fill="#0960E3"/>
<path d="M53.7187 50.0974H50.085V53.7074H53.7187V50.0974Z" fill="#0960E3"/>
<path d="M50.0852 53.7075H46.4752V64.5613H42.8414V60.9513H39.2314V71.805H42.8414V68.195H46.4752V82.6588H50.0852V53.7075Z" fill="#0960E3"/>
<path d="M50.0856 39.2437H46.4756V42.8537H50.0856V39.2437Z" fill="#0960E3"/>
<path d="M50.0856 32H46.4756V35.61H50.0856V32Z" fill="#0960E3"/>
<path d="M46.4755 35.6101H42.8418V39.2439H46.4755V35.6101Z" fill="#0960E3"/>
<path d="M39.2314 108H42.8414V104.39H50.0852V108H53.7189V100.756H42.8414V97.1462H39.2314V108Z" fill="#0960E3"/>
</svg>
