<svg width="150" height="53" viewBox="0 0 150 53" fill="none" xmlns="http://www.w3.org/2000/svg">
<g clip-path="url(#clip0_105_317)">
<path d="M7.08571 14.543H0V21.6287H7.08571V14.543Z" fill="#0960E3"/>
<path d="M24.8001 16.3145H18.6001V22.5145H24.8001V16.3145Z" fill="#0960E3"/>
<path d="M19.4856 11H13.2856V17.2H19.4856V11Z" fill="#0960E3"/>
<path d="M24.8001 30.4854H18.6001V36.6854H24.8001V30.4854Z" fill="#0960E3"/>
<path d="M19.4856 35.7998H13.2856V41.9998H19.4856V35.7998Z" fill="#0960E3"/>
<path d="M7.08571 28.7139H0V35.7996H7.08571V28.7139Z" fill="#0960E3"/>
<path d="M8.85731 34.9141H5.31445V38.4569H8.85731V34.9141Z" fill="#0960E3"/>
<path d="M30.9998 21.6289H24.7998V30.486H30.9998V21.6289Z" fill="#0960E3"/>
<path d="M54.0886 35.3825H49.1309V40.4916H43V14H54.0886C59.3112 14 66.8424 16.195 66.8424 24.6723C66.8424 33.1496 59.3112 35.3825 54.0886 35.3825ZM49.1309 30.2734H53.2182C57.2676 30.2734 60.7115 29.138 60.7115 24.6723C60.7115 20.2444 57.3054 19.1091 53.2182 19.1091H49.1309V30.2734ZM69.1294 14H75.2603V40.4916H69.1294V14ZM90.312 29.6679L83.5378 40.4916H76.385L84.1433 28.6082L76.385 14H83.5378L89.0632 24.8237H90.5391L97.3513 14H104.504L96.7079 25.8455L104.504 40.4916H97.3513L91.8259 29.6679H90.312ZM105.644 14H129.865V19.1091H111.775V24.748H125.135V29.5165H111.775V35.3825H130.244V40.4916H105.644V14ZM133.289 40.4916V14H139.42V35.3825H152.212V40.4916H133.289Z" fill="#1E1E1E"/>
</g>
<defs>
<clipPath id="clip0_105_317">
<rect width="150" height="53" fill="white"/>
</clipPath>
</defs>
</svg>
